# xmcd
# 
# Track frame offsets:
#   150
#   15162
#   33816
#   46334
#   61246
#   75912
#   91477
#   106815
#   118647
#   136745
#   150345
#   167172
#   181790
#   195021
#   211412
# 
# Disc length: 2961 seconds
# 
# Revision: 0
# Processed by: cddbd v1.5.2PL0 Copyright (c) Steve Scherf et al.
# Submitted via: VOLTOCDX V1.0.24 
# 
DISCID=9f0b8f0f
DTITLE=Various Artist - CB60022
DYEAR=2009
DGENRE=Karaoke
TTITLE0=Fishin' In The Dark - Nitty Gritty Dirt Band, The
TTITLE1=Always On My Mind - Nelson, Willie
TTITLE2=Delta Dawn - Tucker, Tanya
TTITLE3=Swingin' - Anderson, John
TTITLE4=Teddy Bear Song - Fairchild, Barbara
TTITLE5=Good Hearted Woman, A - Jennings, Waylon
TTITLE6=Thank God I'm A Country Boy - Denver, John
TTITLE7=Don't It Make My Brown Eyes Blue - Gayle, Crystal
TTITLE8=Convoy - McCall, C.W.
TTITLE9=Mama Don't Let Your Babies - Nelson, Willie and Waylon Jennings
TTITLE10=Old Flame - Alabama
TTITLE11=Rose Garden - Anderson, Lynn
TTITLE12=East Bound And Down - Reed, Jerry
TTITLE13=Lucille - Rogers, Kenny
TTITLE14=Sleeping Single In A Double Bed - Mandrell, Barbara
EXTD=
EXTT0=
EXTT1=
EXTT2=
EXTT3=
EXTT4=
EXTT5=
EXTT6=
EXTT7=
EXTT8=
EXTT9=
EXTT10=
EXTT11=
EXTT12=
EXTT13=
EXTT14=
PLAYORDER=
